<svg width="21" height="21" viewBox="0 0 21 21" fill="none" xmlns="http://www.w3.org/2000/svg">
<path d="M3 6L1.5 4.5C0.704197 3.7 0.704198 2.4 1.5 1.5C2.29581 0.6 3.60472 0.7 4.5 1.5L5.82465 2.58789M18 6L19.5 4.5C20.2958 3.7 20.2958 2.4 19.5 1.5C18.7042 0.600001 17.3953 0.7 16.5 1.5L15.1753 2.58789" stroke="#C1C7C4" stroke-miterlimit="10" stroke-linejoin="round"/>
<path d="M2.5 20V9.53476C2.5 4.75936 6.11905 0.5 10.5 0.5C14.881 0.5 18.5 4.86096 18.5 9.53476V20" stroke="#C1C7C4" stroke-miterlimit="10" stroke-linecap="round" stroke-linejoin="round"/>
<path d="M13 9C13 9 11.5942 9.33805 10.5 9.33805M10.5 9.33805C9.40577 9.33805 8 9 8 9M10.5 9.33805V7.5M9.5 7.5H11.5" stroke="#C1C7C4" stroke-miterlimit="10" stroke-linecap="round" stroke-linejoin="round"/>
<path fill-rule="evenodd" clip-rule="evenodd" d="M6.75 5.5C6.75 5.36193 6.63807 5.25 6.5 5.25C6.36193 5.25 6.25 5.36193 6.25 5.5C6.25 6.22388 6.89677 6.75 7.5 6.75C8.10323 6.75 8.75 6.22388 8.75 5.5C8.75 5.36193 8.63807 5.25 8.5 5.25C8.36193 5.25 8.25 5.36193 8.25 5.5C8.25 5.91897 7.85677 6.25 7.5 6.25C7.14323 6.25 6.75 5.91897 6.75 5.5ZM12.75 5.5C12.75 5.36193 12.6381 5.25 12.5 5.25C12.3619 5.25 12.25 5.36193 12.25 5.5C12.25 6.22388 12.8968 6.75 13.5 6.75C14.1032 6.75 14.75 6.22388 14.75 5.5C14.75 5.36193 14.6381 5.25 14.5 5.25C14.3619 5.25 14.25 5.36193 14.25 5.5C14.25 5.91897 13.8568 6.25 13.5 6.25C13.1432 6.25 12.75 5.91897 12.75 5.5Z" fill="#C1C7C4"/>
</svg>
